<?xml version="1.0" encoding="utf-8"?>
<!-- Generator: Adobe Illustrator 17.1.0, SVG Export Plug-In . SVG Version: 6.00 Build 0)  -->
<!DOCTYPE svg PUBLIC "-//W3C//DTD SVG 1.1//EN" "http://www.w3.org/Graphics/SVG/1.1/DTD/svg11.dtd">
<svg version="1.1" id="Layer_1" xmlns="http://www.w3.org/2000/svg" xmlns:xlink="http://www.w3.org/1999/xlink" x="0px" y="0px"
	 viewBox="0 0 11.152 13.944" enable-background="new 0 0 11.152 13.944" xml:space="preserve">
<g>
	<path fill="#484848" d="M10.579,13.944H0.573C0.257,13.944,0,13.678,0,13.351c0-0.327,0.256-0.592,0.573-0.592h10.006
		c0.316,0,0.573,0.265,0.573,0.592C11.152,13.678,10.895,13.944,10.579,13.944z"/>
	<path fill="#484848" d="M10.985,1.848L9.358,0.166c-0.216-0.222-0.596-0.222-0.81,0L7.074,1.689L1.385,7.57
		C1.334,7.624,1.293,7.686,1.264,7.756l-1.218,2.941c-0.092,0.224-0.044,0.481,0.121,0.652c0.11,0.113,0.257,0.174,0.406,0.174
		c0.075,0,0.152-0.015,0.226-0.047l2.845-1.261c0.067-0.029,0.128-0.071,0.178-0.125l5.689-5.88l1.473-1.523
		c0.106-0.112,0.167-0.262,0.167-0.418C11.151,2.111,11.091,1.96,10.985,1.848z M3.091,9.17L1.663,9.803l0.611-1.475l5.076-5.246
		l0.815,0.843L3.091,9.17z M8.744,3.327l0.002,0.002C8.731,3.342,8.716,3.356,8.701,3.371L8.744,3.327L7.927,2.483L7.885,2.527
		c0.015-0.015,0.026-0.031,0.039-0.046l0.003,0.002l1.025-1.059l0.817,0.844L8.744,3.327z"/>
	<path fill="#484848" d="M7.927,2.483L7.885,2.527c0.015-0.015,0.026-0.031,0.039-0.046L7.927,2.483z"/>
	<path fill="#484848" d="M8.745,3.329C8.731,3.342,8.716,3.356,8.701,3.371l0.043-0.044L8.745,3.329z"/>
	<path fill="#484848" d="M7.927,2.483L7.885,2.527c0.015-0.015,0.026-0.031,0.039-0.046L7.927,2.483z"/>
	<path fill="#484848" d="M8.745,3.329C8.731,3.342,8.716,3.356,8.701,3.371l0.043-0.044L8.745,3.329z"/>
</g>
</svg>
